<svg id="Capa_1" data-name="Capa 1" xmlns="http://www.w3.org/2000/svg" viewBox="0 0 278 258.58"><defs><style>.cls-1{fill:none;stroke:#000;stroke-miterlimit:10;stroke-width:3px;}</style></defs><path d="M2164,2086.44l7.28,19.77,0,.32-6,49.4-14.72,20-161.28,1-80-124,108-62m-25.54,182,158.54,2,14-19,6-50-7-19-145.5-91.72-96,61.69Z" transform="translate(-1909.27 -1918.35)"/><polygon points="254.88 238.57 116 222.58 85 160.58 133 121.58 262.45 187.69 261.55 189.47 133.64 124.28 91 162.58 118.18 220.16 255 237.58 254.88 238.57"/><polygon points="133.56 123.82 107.56 75.82 109 74.58 134.44 123.34 133.56 123.82"/><polygon points="81.96 256.44 80 255.58 117.15 220.72 117.85 221.44 81.96 256.44"/><polyline points="10 139.58 11 135.58 259.65 212.6 260 213.58"/><polygon points="241 257.58 257 237.58 264 186.58 267.5 73.29 278 76.58 264.5 56.08 260.5 0 257 87.58 252 102.58 235 117.58 250.5 110.08 242.5 160.08 254.5 169.08 261.5 190.08 256 237.58 241 257.58"/><path class="cls-1" d="M2162.77,2088.43" transform="translate(-1909.27 -1918.35)"/></svg>