<svg id="Capa_1" data-name="Capa 1" xmlns="http://www.w3.org/2000/svg" viewBox="0 0 279.89 259.12"><defs><style>.cls-1{fill:#fff;}.cls-1,.cls-2{stroke:#fff;stroke-miterlimit:10;}.cls-2{fill:none;stroke-width:3px;}</style></defs><path class="cls-1" d="M2164,2086.44l7.28,19.77,0,.32-6,49.4-14.72,20-161.28,1-80-124,108-62m-25.54,182,158.54,2,14-19,6-50-7-19-145.5-91.72-96,61.69Z" transform="translate(-1908.57 -1918.31)"/><polygon class="cls-1" points="255.59 238.61 116.71 222.62 85.71 160.62 133.71 121.62 263.16 187.72 262.25 189.51 134.35 124.31 91.71 162.62 118.89 220.19 255.71 237.62 255.59 238.61"/><polygon class="cls-1" points="134.27 123.85 108.27 75.85 109.71 74.62 135.15 123.38 134.27 123.85"/><polygon class="cls-1" points="82.67 256.47 80.71 255.62 117.86 220.76 118.56 221.47 82.67 256.47"/><polyline class="cls-1" points="10.71 139.62 11.71 135.62 260.36 212.64 260.71 213.62"/><polygon class="cls-1" points="241.71 257.62 257.71 237.62 264.71 186.62 268.21 73.33 278.71 76.62 265.21 56.12 261.21 0.04 257.71 87.62 252.71 102.62 235.71 117.62 251.21 110.12 243.21 160.12 255.21 169.12 262.21 190.12 256.71 237.62 241.71 257.62"/><path class="cls-2" d="M2162.77,2088.43" transform="translate(-1908.57 -1918.31)"/></svg>